<svg width="187" height="171" viewBox="0 0 187 171" fill="none" xmlns="http://www.w3.org/2000/svg">
<path d="M2.23722 149V128.636H5.30966V146.355H14.5369V149H2.23722ZM21.1143 128.636V149H18.0419V128.636H21.1143ZM25.5888 149V128.636H38.2166V131.281H28.6612V137.486H37.3118V140.121H28.6612V149H25.5888ZM41.995 149V128.636H54.7621V131.281H45.0675V137.486H54.0959V140.121H45.0675V146.355H54.8814V149H41.995ZM69.3487 128.636V149H66.2763V128.636H69.3487ZM84.9297 133.986C84.8236 133.045 84.3861 132.315 83.6172 131.798C82.8482 131.275 81.8804 131.013 80.7138 131.013C79.8786 131.013 79.156 131.145 78.5462 131.411C77.9363 131.669 77.4624 132.027 77.1243 132.484C76.7929 132.935 76.6271 133.449 76.6271 134.026C76.6271 134.509 76.7398 134.927 76.9652 135.278C77.1972 135.63 77.4988 135.925 77.87 136.163C78.2479 136.395 78.6522 136.591 79.0831 136.75C79.514 136.902 79.9283 137.028 80.326 137.128L82.3146 137.645C82.9643 137.804 83.6304 138.019 84.3132 138.291C84.996 138.563 85.629 138.921 86.2124 139.365C86.7957 139.809 87.2663 140.359 87.6243 141.016C87.9889 141.672 88.1712 142.457 88.1712 143.372C88.1712 144.526 87.8729 145.55 87.2763 146.445C86.6863 147.339 85.8279 148.045 84.701 148.562C83.5807 149.08 82.2251 149.338 80.6342 149.338C79.1096 149.338 77.7905 149.096 76.6768 148.612C75.5632 148.128 74.6915 147.442 74.0618 146.554C73.4321 145.659 73.084 144.598 73.0178 143.372H76.1001C76.1598 144.108 76.3984 144.721 76.8161 145.212C77.2403 145.696 77.7805 146.057 78.4368 146.295C79.0997 146.527 79.8255 146.643 80.6143 146.643C81.4827 146.643 82.255 146.508 82.9311 146.236C83.6139 145.957 84.1508 145.573 84.5419 145.082C84.933 144.585 85.1286 144.005 85.1286 143.342C85.1286 142.739 84.9562 142.245 84.6115 141.861C84.2734 141.476 83.8127 141.158 83.2294 140.906C82.6527 140.654 81.9998 140.432 81.2706 140.24L78.8643 139.584C77.2337 139.14 75.9411 138.487 74.9865 137.625C74.0386 136.763 73.5646 135.623 73.5646 134.205C73.5646 133.031 73.8828 132.007 74.5192 131.132C75.1555 130.257 76.0173 129.578 77.1044 129.094C78.1915 128.603 79.4179 128.358 80.7834 128.358C82.1622 128.358 83.3786 128.6 84.4325 129.084C85.4931 129.568 86.3284 130.234 86.9382 131.082C87.5481 131.924 87.8662 132.892 87.8928 133.986H84.9297ZM99.2528 149V128.636H106.71C108.155 128.636 109.352 128.875 110.3 129.352C111.248 129.823 111.957 130.463 112.428 131.271C112.898 132.073 113.134 132.978 113.134 133.986C113.134 134.834 112.978 135.55 112.666 136.134C112.355 136.71 111.937 137.174 111.413 137.526C110.896 137.87 110.326 138.122 109.703 138.281V138.48C110.379 138.513 111.039 138.732 111.682 139.136C112.331 139.534 112.868 140.101 113.293 140.837C113.717 141.572 113.929 142.467 113.929 143.521C113.929 144.562 113.684 145.497 113.193 146.325C112.709 147.147 111.96 147.8 110.946 148.284C109.932 148.761 108.636 149 107.058 149H99.2528ZM102.325 146.365H106.76C108.232 146.365 109.286 146.08 109.922 145.51C110.558 144.94 110.876 144.227 110.876 143.372C110.876 142.729 110.714 142.139 110.389 141.602C110.064 141.065 109.6 140.638 108.997 140.32C108.401 140.001 107.691 139.842 106.869 139.842H102.325V146.365ZM102.325 137.446H106.442C107.131 137.446 107.751 137.313 108.301 137.048C108.858 136.783 109.299 136.412 109.624 135.935C109.955 135.451 110.121 134.881 110.121 134.224C110.121 133.383 109.826 132.677 109.236 132.107C108.646 131.536 107.741 131.251 106.521 131.251H102.325V137.446ZM130.668 128.636H133.751V142.03C133.751 143.455 133.416 144.718 132.746 145.818C132.077 146.912 131.136 147.774 129.923 148.403C128.71 149.027 127.288 149.338 125.657 149.338C124.033 149.338 122.614 149.027 121.401 148.403C120.188 147.774 119.247 146.912 118.577 145.818C117.908 144.718 117.573 143.455 117.573 142.03V128.636H120.646V141.781C120.646 142.703 120.848 143.521 121.252 144.237C121.663 144.953 122.243 145.517 122.992 145.928C123.741 146.332 124.629 146.534 125.657 146.534C126.691 146.534 127.583 146.332 128.332 145.928C129.087 145.517 129.664 144.953 130.062 144.237C130.466 143.521 130.668 142.703 130.668 141.781V128.636ZM138.218 149V128.636H145.675C147.12 128.636 148.317 128.875 149.265 129.352C150.212 129.823 150.922 130.463 151.392 131.271C151.863 132.073 152.098 132.978 152.098 133.986C152.098 134.834 151.943 135.55 151.631 136.134C151.319 136.71 150.902 137.174 150.378 137.526C149.861 137.87 149.291 138.122 148.668 138.281V138.48C149.344 138.513 150.004 138.732 150.647 139.136C151.296 139.534 151.833 140.101 152.257 140.837C152.682 141.572 152.894 142.467 152.894 143.521C152.894 144.562 152.649 145.497 152.158 146.325C151.674 147.147 150.925 147.8 149.911 148.284C148.897 148.761 147.601 149 146.023 149H138.218ZM141.29 146.365H145.725C147.196 146.365 148.25 146.08 148.887 145.51C149.523 144.94 149.841 144.227 149.841 143.372C149.841 142.729 149.679 142.139 149.354 141.602C149.029 141.065 148.565 140.638 147.962 140.32C147.365 140.001 146.656 139.842 145.834 139.842H141.29V146.365ZM141.29 137.446H145.407C146.096 137.446 146.716 137.313 147.266 137.048C147.823 136.783 148.264 136.412 148.588 135.935C148.92 135.451 149.086 134.881 149.086 134.224C149.086 133.383 148.791 132.677 148.201 132.107C147.611 131.536 146.706 131.251 145.486 131.251H141.29V137.446ZM156.538 149V128.636H159.61V146.355H168.838V149H156.538ZM172.343 149V128.636H185.11V131.281H175.415V137.486H184.444V140.121H175.415V146.355H185.229V149H172.343Z" fill="#00966C"/>
<path d="M55.2074 162.111H53.8778C53.8267 161.827 53.7315 161.577 53.5923 161.361C53.4531 161.145 53.2827 160.962 53.081 160.811C52.8793 160.661 52.6534 160.547 52.4034 160.47C52.1563 160.393 51.8935 160.355 51.6151 160.355C51.1122 160.355 50.6619 160.482 50.2642 160.734C49.8693 160.987 49.5568 161.358 49.3267 161.847C49.0994 162.335 48.9858 162.932 48.9858 163.636C48.9858 164.347 49.0994 164.946 49.3267 165.435C49.5568 165.923 49.8707 166.293 50.2685 166.543C50.6662 166.793 51.1136 166.918 51.6108 166.918C51.8864 166.918 52.1477 166.881 52.3949 166.807C52.6449 166.73 52.8707 166.618 53.0724 166.47C53.2741 166.322 53.4446 166.142 53.5838 165.929C53.7259 165.713 53.8239 165.466 53.8778 165.188L55.2074 165.192C55.1364 165.621 54.9986 166.016 54.794 166.376C54.5923 166.734 54.3324 167.044 54.0142 167.305C53.6989 167.564 53.3381 167.764 52.9318 167.906C52.5256 168.048 52.0824 168.119 51.6023 168.119C50.8466 168.119 50.1733 167.94 49.5824 167.582C48.9915 167.222 48.5256 166.706 48.1847 166.036C47.8466 165.365 47.6776 164.565 47.6776 163.636C47.6776 162.705 47.848 161.905 48.1889 161.237C48.5298 160.567 48.9957 160.053 49.5866 159.695C50.1776 159.334 50.8494 159.153 51.6023 159.153C52.0653 159.153 52.4972 159.22 52.8977 159.354C53.3011 159.484 53.6634 159.678 53.9844 159.933C54.3054 160.186 54.571 160.496 54.7812 160.862C54.9915 161.226 55.1335 161.642 55.2074 162.111ZM59.4379 168.132C58.8242 168.132 58.2887 167.991 57.8313 167.71C57.3739 167.429 57.0188 167.036 56.766 166.53C56.5131 166.024 56.3867 165.433 56.3867 164.757C56.3867 164.078 56.5131 163.484 56.766 162.976C57.0188 162.467 57.3739 162.072 57.8313 161.791C58.2887 161.51 58.8242 161.369 59.4379 161.369C60.0515 161.369 60.587 161.51 61.0444 161.791C61.5018 162.072 61.8569 162.467 62.1097 162.976C62.3626 163.484 62.489 164.078 62.489 164.757C62.489 165.433 62.3626 166.024 62.1097 166.53C61.8569 167.036 61.5018 167.429 61.0444 167.71C60.587 167.991 60.0515 168.132 59.4379 168.132ZM59.4421 167.062C59.8398 167.062 60.1694 166.957 60.4308 166.747C60.6921 166.537 60.8853 166.257 61.0103 165.908C61.1381 165.558 61.2021 165.173 61.2021 164.753C61.2021 164.335 61.1381 163.952 61.0103 163.602C60.8853 163.25 60.6921 162.967 60.4308 162.754C60.1694 162.541 59.8398 162.435 59.4421 162.435C59.0415 162.435 58.7092 162.541 58.445 162.754C58.1836 162.967 57.989 163.25 57.8612 163.602C57.7362 163.952 57.6737 164.335 57.6737 164.753C57.6737 165.173 57.7362 165.558 57.8612 165.908C57.989 166.257 58.1836 166.537 58.445 166.747C58.7092 166.957 59.0415 167.062 59.4421 167.062ZM67.0263 161.455V162.477H63.3274V161.455H67.0263ZM64.3416 168V160.696C64.3416 160.287 64.4311 159.947 64.6101 159.678C64.7891 159.405 65.0263 159.202 65.3217 159.068C65.6172 158.932 65.9382 158.864 66.2848 158.864C66.5405 158.864 66.7592 158.885 66.9411 158.928C67.1229 158.967 67.2578 159.004 67.3459 159.038L67.0476 160.07C66.9879 160.053 66.9112 160.033 66.8175 160.01C66.7237 159.984 66.6101 159.972 66.4766 159.972C66.1669 159.972 65.9453 160.048 65.8118 160.202C65.6811 160.355 65.6158 160.577 65.6158 160.866V168H64.3416ZM71.456 161.455V162.477H67.7571V161.455H71.456ZM68.7713 168V160.696C68.7713 160.287 68.8608 159.947 69.0398 159.678C69.2188 159.405 69.456 159.202 69.7514 159.068C70.0469 158.932 70.3679 158.864 70.7145 158.864C70.9702 158.864 71.1889 158.885 71.3707 158.928C71.5526 158.967 71.6875 159.004 71.7756 159.038L71.4773 160.07C71.4176 160.053 71.3409 160.033 71.2472 160.01C71.1534 159.984 71.0398 159.972 70.9062 159.972C70.5966 159.972 70.375 160.048 70.2415 160.202C70.1108 160.355 70.0455 160.577 70.0455 160.866V168H68.7713ZM75.3338 168.132C74.6889 168.132 74.1335 167.994 73.6676 167.719C73.2045 167.44 72.8466 167.05 72.5938 166.547C72.3438 166.041 72.2188 165.449 72.2188 164.77C72.2188 164.099 72.3438 163.509 72.5938 162.997C72.8466 162.486 73.1989 162.087 73.6506 161.8C74.1051 161.513 74.6364 161.369 75.2443 161.369C75.6136 161.369 75.9716 161.43 76.3182 161.553C76.6648 161.675 76.9759 161.866 77.2514 162.128C77.527 162.389 77.7443 162.729 77.9034 163.146C78.0625 163.561 78.142 164.065 78.142 164.659V165.111H72.9389V164.156H76.8935C76.8935 163.821 76.8253 163.524 76.6889 163.266C76.5526 163.004 76.3608 162.798 76.1136 162.648C75.8693 162.497 75.5824 162.422 75.2528 162.422C74.8949 162.422 74.5824 162.51 74.3153 162.686C74.0511 162.859 73.8466 163.087 73.7017 163.368C73.5597 163.646 73.4886 163.949 73.4886 164.276V165.021C73.4886 165.459 73.5653 165.831 73.7188 166.138C73.875 166.445 74.0923 166.679 74.3707 166.841C74.6491 167 74.9744 167.08 75.3466 167.08C75.5881 167.08 75.8082 167.045 76.0071 166.977C76.206 166.906 76.3778 166.801 76.5227 166.662C76.6676 166.523 76.7784 166.351 76.8551 166.146L78.0611 166.364C77.9645 166.719 77.7912 167.03 77.5412 167.297C77.294 167.561 76.983 167.767 76.608 167.915C76.2358 168.06 75.8111 168.132 75.3338 168.132ZM82.3768 168.132C81.7319 168.132 81.1765 167.994 80.7106 167.719C80.2475 167.44 79.8896 167.05 79.6367 166.547C79.3867 166.041 79.2617 165.449 79.2617 164.77C79.2617 164.099 79.3867 163.509 79.6367 162.997C79.8896 162.486 80.2418 162.087 80.6935 161.8C81.1481 161.513 81.6793 161.369 82.2873 161.369C82.6566 161.369 83.0146 161.43 83.3612 161.553C83.7077 161.675 84.0188 161.866 84.2944 162.128C84.57 162.389 84.7873 162.729 84.9464 163.146C85.1055 163.561 85.185 164.065 85.185 164.659V165.111H79.9819V164.156H83.9364C83.9364 163.821 83.8683 163.524 83.7319 163.266C83.5955 163.004 83.4038 162.798 83.1566 162.648C82.9123 162.497 82.6254 162.422 82.2958 162.422C81.9379 162.422 81.6254 162.51 81.3583 162.686C81.0941 162.859 80.8896 163.087 80.7447 163.368C80.6026 163.646 80.5316 163.949 80.5316 164.276V165.021C80.5316 165.459 80.6083 165.831 80.7617 166.138C80.918 166.445 81.1353 166.679 81.4137 166.841C81.6921 167 82.0174 167.08 82.3896 167.08C82.631 167.08 82.8512 167.045 83.0501 166.977C83.2489 166.906 83.4208 166.801 83.5657 166.662C83.7106 166.523 83.8214 166.351 83.8981 166.146L85.104 166.364C85.0075 166.719 84.8342 167.03 84.5842 167.297C84.337 167.561 84.0259 167.767 83.6509 167.915C83.2788 168.06 82.854 168.132 82.3768 168.132ZM91.6793 168.145C91.2646 168.145 90.8896 168.068 90.5543 167.915C90.2191 167.759 89.9535 167.533 89.7575 167.237C89.5643 166.942 89.4677 166.58 89.4677 166.151C89.4677 165.781 89.5387 165.477 89.6808 165.239C89.8228 165 90.0146 164.811 90.256 164.672C90.4975 164.533 90.7674 164.428 91.0657 164.357C91.364 164.286 91.668 164.232 91.9776 164.195C92.3697 164.149 92.6879 164.112 92.9322 164.084C93.1765 164.053 93.354 164.003 93.4648 163.935C93.5756 163.866 93.631 163.756 93.631 163.602V163.572C93.631 163.2 93.5259 162.912 93.3157 162.707C93.1083 162.503 92.7987 162.401 92.3867 162.401C91.9577 162.401 91.6197 162.496 91.3725 162.686C91.1282 162.874 90.9592 163.082 90.8654 163.312L89.668 163.04C89.81 162.642 90.0174 162.321 90.2901 162.077C90.5657 161.83 90.8825 161.651 91.2404 161.54C91.5984 161.426 91.9748 161.369 92.3697 161.369C92.631 161.369 92.908 161.401 93.2006 161.463C93.4961 161.523 93.7717 161.634 94.0273 161.795C94.2859 161.957 94.4975 162.189 94.6623 162.49C94.8271 162.788 94.9094 163.176 94.9094 163.653V168H93.6651V167.105H93.614C93.5316 167.27 93.408 167.432 93.2433 167.591C93.0785 167.75 92.8668 167.882 92.6083 167.987C92.3498 168.092 92.0401 168.145 91.6793 168.145ZM91.9563 167.122C92.3086 167.122 92.6097 167.053 92.8597 166.913C93.1126 166.774 93.3043 166.592 93.435 166.368C93.5685 166.141 93.6353 165.898 93.6353 165.639V164.795C93.5898 164.841 93.5018 164.884 93.3711 164.923C93.2433 164.96 93.0969 164.993 92.9322 165.021C92.7674 165.047 92.6069 165.071 92.4506 165.094C92.2944 165.114 92.1637 165.131 92.0586 165.145C91.8114 165.176 91.5856 165.229 91.381 165.303C91.1793 165.376 91.0174 165.483 90.8952 165.622C90.7759 165.759 90.7163 165.94 90.7163 166.168C90.7163 166.483 90.8327 166.722 91.0657 166.884C91.2987 167.043 91.5955 167.122 91.9563 167.122ZM97.8807 164.114V168H96.6065V161.455H97.8295V162.52H97.9105C98.0611 162.173 98.2969 161.895 98.6179 161.685C98.9418 161.474 99.3494 161.369 99.8409 161.369C100.287 161.369 100.678 161.463 101.013 161.651C101.348 161.835 101.608 162.111 101.793 162.477C101.977 162.844 102.07 163.297 102.07 163.837V168H100.795V163.99C100.795 163.516 100.672 163.145 100.425 162.878C100.178 162.608 99.8381 162.473 99.4062 162.473C99.1108 162.473 98.848 162.537 98.6179 162.665C98.3906 162.793 98.2102 162.98 98.0767 163.227C97.946 163.472 97.8807 163.767 97.8807 164.114ZM106.229 168.128C105.7 168.128 105.229 167.993 104.814 167.723C104.402 167.45 104.078 167.062 103.842 166.56C103.609 166.054 103.493 165.447 103.493 164.74C103.493 164.033 103.611 163.428 103.847 162.925C104.085 162.422 104.412 162.037 104.827 161.77C105.241 161.503 105.712 161.369 106.237 161.369C106.643 161.369 106.97 161.438 107.217 161.574C107.467 161.707 107.661 161.864 107.797 162.043C107.936 162.222 108.044 162.379 108.121 162.516H108.197V159.273H109.472V168H108.227V166.982H108.121C108.044 167.121 107.933 167.28 107.788 167.459C107.646 167.638 107.45 167.794 107.2 167.928C106.95 168.061 106.626 168.128 106.229 168.128ZM106.51 167.041C106.876 167.041 107.186 166.945 107.439 166.751C107.695 166.555 107.888 166.284 108.018 165.938C108.152 165.591 108.219 165.187 108.219 164.727C108.219 164.273 108.153 163.875 108.023 163.534C107.892 163.193 107.7 162.928 107.447 162.737C107.195 162.547 106.882 162.452 106.51 162.452C106.126 162.452 105.807 162.551 105.551 162.75C105.295 162.949 105.102 163.22 104.972 163.564C104.844 163.908 104.78 164.295 104.78 164.727C104.78 165.165 104.845 165.558 104.976 165.908C105.107 166.257 105.3 166.534 105.555 166.739C105.814 166.94 106.132 167.041 106.51 167.041ZM121.817 162.111H120.487C120.436 161.827 120.341 161.577 120.202 161.361C120.063 161.145 119.892 160.962 119.69 160.811C119.489 160.661 119.263 160.547 119.013 160.47C118.766 160.393 118.503 160.355 118.224 160.355C117.722 160.355 117.271 160.482 116.874 160.734C116.479 160.987 116.166 161.358 115.936 161.847C115.709 162.335 115.595 162.932 115.595 163.636C115.595 164.347 115.709 164.946 115.936 165.435C116.166 165.923 116.48 166.293 116.878 166.543C117.276 166.793 117.723 166.918 118.22 166.918C118.496 166.918 118.757 166.881 119.004 166.807C119.254 166.73 119.48 166.618 119.682 166.47C119.884 166.322 120.054 166.142 120.193 165.929C120.335 165.713 120.433 165.466 120.487 165.188L121.817 165.192C121.746 165.621 121.608 166.016 121.403 166.376C121.202 166.734 120.942 167.044 120.624 167.305C120.308 167.564 119.947 167.764 119.541 167.906C119.135 168.048 118.692 168.119 118.212 168.119C117.456 168.119 116.783 167.94 116.192 167.582C115.601 167.222 115.135 166.706 114.794 166.036C114.456 165.365 114.287 164.565 114.287 163.636C114.287 162.705 114.457 161.905 114.798 161.237C115.139 160.567 115.605 160.053 116.196 159.695C116.787 159.334 117.459 159.153 118.212 159.153C118.675 159.153 119.107 159.22 119.507 159.354C119.911 159.484 120.273 159.678 120.594 159.933C120.915 160.186 121.18 160.496 121.391 160.862C121.601 161.226 121.743 161.642 121.817 162.111ZM125.195 168.145C124.78 168.145 124.405 168.068 124.07 167.915C123.735 167.759 123.469 167.533 123.273 167.237C123.08 166.942 122.983 166.58 122.983 166.151C122.983 165.781 123.054 165.477 123.196 165.239C123.338 165 123.53 164.811 123.772 164.672C124.013 164.533 124.283 164.428 124.581 164.357C124.88 164.286 125.184 164.232 125.493 164.195C125.885 164.149 126.203 164.112 126.448 164.084C126.692 164.053 126.87 164.003 126.98 163.935C127.091 163.866 127.147 163.756 127.147 163.602V163.572C127.147 163.2 127.042 162.912 126.831 162.707C126.624 162.503 126.314 162.401 125.902 162.401C125.473 162.401 125.135 162.496 124.888 162.686C124.644 162.874 124.475 163.082 124.381 163.312L123.184 163.04C123.326 162.642 123.533 162.321 123.806 162.077C124.081 161.83 124.398 161.651 124.756 161.54C125.114 161.426 125.49 161.369 125.885 161.369C126.147 161.369 126.424 161.401 126.716 161.463C127.012 161.523 127.287 161.634 127.543 161.795C127.801 161.957 128.013 162.189 128.178 162.49C128.343 162.788 128.425 163.176 128.425 163.653V168H127.181V167.105H127.13C127.047 167.27 126.924 167.432 126.759 167.591C126.594 167.75 126.382 167.882 126.124 167.987C125.865 168.092 125.556 168.145 125.195 168.145ZM125.472 167.122C125.824 167.122 126.125 167.053 126.375 166.913C126.628 166.774 126.82 166.592 126.951 166.368C127.084 166.141 127.151 165.898 127.151 165.639V164.795C127.105 164.841 127.017 164.884 126.887 164.923C126.759 164.96 126.613 164.993 126.448 165.021C126.283 165.047 126.123 165.071 125.966 165.094C125.81 165.114 125.679 165.131 125.574 165.145C125.327 165.176 125.101 165.229 124.897 165.303C124.695 165.376 124.533 165.483 124.411 165.622C124.292 165.759 124.232 165.94 124.232 166.168C124.232 166.483 124.348 166.722 124.581 166.884C124.814 167.043 125.111 167.122 125.472 167.122ZM131.294 165.78L131.286 164.224H131.507L134.115 161.455H135.641L132.666 164.608H132.466L131.294 165.78ZM130.122 168V159.273H131.396V168H130.122ZM134.256 168L131.912 164.889L132.79 163.999L135.82 168H134.256ZM139.353 168.132C138.708 168.132 138.153 167.994 137.687 167.719C137.224 167.44 136.866 167.05 136.613 166.547C136.363 166.041 136.238 165.449 136.238 164.77C136.238 164.099 136.363 163.509 136.613 162.997C136.866 162.486 137.218 162.087 137.67 161.8C138.125 161.513 138.656 161.369 139.264 161.369C139.633 161.369 139.991 161.43 140.338 161.553C140.684 161.675 140.995 161.866 141.271 162.128C141.547 162.389 141.764 162.729 141.923 163.146C142.082 163.561 142.162 164.065 142.162 164.659V165.111H136.958V164.156H140.913C140.913 163.821 140.845 163.524 140.708 163.266C140.572 163.004 140.38 162.798 140.133 162.648C139.889 162.497 139.602 162.422 139.272 162.422C138.914 162.422 138.602 162.51 138.335 162.686C138.071 162.859 137.866 163.087 137.721 163.368C137.579 163.646 137.508 163.949 137.508 164.276V165.021C137.508 165.459 137.585 165.831 137.738 166.138C137.895 166.445 138.112 166.679 138.39 166.841C138.669 167 138.994 167.08 139.366 167.08C139.608 167.08 139.828 167.045 140.027 166.977C140.225 166.906 140.397 166.801 140.542 166.662C140.687 166.523 140.798 166.351 140.875 166.146L142.081 166.364C141.984 166.719 141.811 167.03 141.561 167.297C141.314 167.561 141.002 167.767 140.627 167.915C140.255 168.06 139.831 168.132 139.353 168.132Z" fill="#00966C"/>
<path d="M134.01 81.161C135.117 81.365 136.253 81.486 137.42 81.486C147.759 81.486 156.14 73.105 156.14 62.766C156.14 55.372 151.843 48.999 145.62 45.957C146.423 41.652 146.753 38.91 146.753 38.91C146.802 38.537 146.825 38.193 146.827 37.876C146.841 36.281 145.194 34.361 143.801 33.583C124.934 23.038 90.4581 24.282 90.4581 24.282C90.4581 24.282 55.6821 23.17 36.8261 33.74C35.3781 34.552 33.9261 36.428 34.0521 38.083C34.0721 38.342 34.1081 38.617 34.1631 38.91C34.1631 38.91 37.8931 70.151 51.2201 87.937L51.2331 88.293C39.4541 91.312 32.0551 95.671 32.0551 100.519C32.0551 109.633 58.2031 117.021 90.4571 117.021C122.711 117.021 148.859 109.633 148.859 100.519C148.859 95.672 141.46 91.313 129.681 88.293L129.694 87.937C131.265 85.841 132.697 83.556 134.01 81.161ZM146.852 62.765C146.852 67.702 143.057 71.747 138.227 72.157C140.504 66.491 142.233 60.705 143.519 55.576C145.556 57.307 146.852 59.883 146.852 62.765Z" fill="#F29BBC"/>
<path d="M90.4349 46.829C118.346 46.829 140.972 42.5887 140.972 37.358C140.972 32.1273 118.346 27.887 90.4349 27.887C62.5241 27.887 39.8979 32.1273 39.8979 37.358C39.8979 42.5887 62.5241 46.829 90.4349 46.829Z" fill="#E2D0BF"/>
<path d="M49.237 37.358C49.237 32.686 68.861 28.874 93.503 28.658C92.769 28.652 92.031 28.647 91.288 28.647C65.618 28.647 44.808 32.547 44.808 37.358C44.808 42.169 65.618 46.069 91.288 46.069C92.031 46.069 92.768 46.065 93.503 46.058C68.862 45.842 49.237 42.03 49.237 37.358Z" fill="#C1AB99"/>
<path d="M131.725 37.358C131.725 32.686 112.101 28.874 87.459 28.658C88.193 28.652 88.931 28.647 89.673 28.647C115.343 28.647 136.153 32.547 136.153 37.358C136.153 42.169 115.343 46.069 89.673 46.069C88.93 46.069 88.193 46.065 87.459 46.058C112.1 45.842 131.725 42.03 131.725 37.358Z" fill="#C1AB99"/>
<path d="M90.435 43.418C108.29 43.418 122.764 40.7053 122.764 37.359C122.764 34.0128 108.29 31.3 90.435 31.3C72.5801 31.3 58.106 34.0128 58.106 37.359C58.106 40.7053 72.5801 43.418 90.435 43.418Z" fill="white"/>
<path opacity="0.1" d="M90.435 39.2041C97.1099 39.2041 102.521 38.19 102.521 36.9391C102.521 35.6881 97.1099 34.6741 90.435 34.6741C83.7601 34.6741 78.349 35.6881 78.349 36.9391C78.349 38.19 83.7601 39.2041 90.435 39.2041Z" fill="#CE4949"/>
<path d="M87.984 33.739L94.798 46.794V101.165C94.798 101.165 105.85 101.165 111.806 99.038V45.943L87.984 33.739Z" fill="#F05A5A"/>
<path d="M94.798 49.673V53.341L111.806 62.054V58.386L94.798 49.673Z" fill="#E2D0BF"/>
<path d="M129.627 88.292C119.257 102.848 90.435 101.165 90.435 101.165C64.51 101.691 51.178 88.292 51.178 88.292C39.399 91.311 32 95.67 32 100.518C32 109.632 58.148 117.02 90.402 117.02C122.657 117.02 148.804 109.632 148.804 100.518C148.804 95.67 141.406 91.311 129.627 88.292Z" fill="#7A402C"/>
<path d="M94.798 67.004V70.672L111.806 79.385V75.718L94.798 67.004Z" fill="#E2D0BF"/>
<path d="M94.798 83.391V87.058L111.806 95.772V92.104L94.798 83.391Z" fill="#E2D0BF"/>
<path opacity="0.7" d="M87.984 33.739L99.023 45.323V101.029L94.798 101.164V46.805L87.984 33.739Z" fill="#63301E"/>
<path d="M39.8979 43.417C39.8979 43.417 43.2759 45.288 46.0259 45.689C46.0259 45.689 44.8079 70.066 55.9489 86.813C55.9489 86.813 43.3879 75.468 39.8979 43.417Z" fill="#EA6C9C"/>
<path d="M145.563 45.9561C145.563 45.9561 144.311 52.7181 143.462 55.5761C143.462 55.5761 144.364 56.3111 144.575 56.7071C144.575 56.7071 147.354 51.2831 148.067 47.4231C148.067 47.4231 146.551 46.4061 145.563 45.9561Z" fill="#EA6C9C"/>
<path d="M138.171 72.157C138.171 72.157 136.161 77.541 133.954 81.16C133.954 81.16 134.421 81.287 135.128 81.349C135.128 81.349 137.694 79.188 141.023 71.479C141.023 71.479 139.699 72.017 138.171 72.157Z" fill="#EA6C9C"/>
<path opacity="0.7" d="M51.178 88.292C51.178 88.292 62.813 99.968 85.714 101.165C95.891 101.697 112.687 100.542 122.433 94.722C122.433 94.722 107.545 106.156 74.063 103.781C63.215 103.011 46.725 100.466 35.808 94.645C35.808 94.645 40.875 90.701 51.178 88.292Z" fill="#63301E"/>
<path d="M102.477 27.1103C103.552 20.4619 99.0338 14.201 92.3854 13.1262C85.7371 12.0514 79.4762 16.5696 78.4014 23.2179C77.3265 29.8663 81.8448 36.1272 88.4931 37.202C95.1415 38.2769 101.402 33.7586 102.477 27.1103Z" fill="#F05A5A"/>
<path d="M91.2791 15.907C91.1641 15.309 90.4451 14.916 89.5061 14.844C87.7731 4.80004 79.8961 0.342039 79.5481 0.150039C78.9651 -0.172961 78.2261 0.0430388 77.9041 0.630039C77.5821 1.21604 77.7951 1.95304 78.3831 2.27504C78.4591 2.31604 85.6031 6.36004 87.1311 15.322C86.3221 15.738 85.8271 16.353 85.9391 16.936C86.1001 17.77 87.4251 18.215 88.9001 17.931C90.3751 17.647 91.4401 16.74 91.2791 15.907Z" fill="#5B2E1A"/>
<path d="M90.831 35.717C90.806 35.717 90.781 35.716 90.757 35.714C86.678 35.346 83.65 33.577 81.757 30.456C81.522 30.068 81.646 29.564 82.034 29.329C82.422 29.095 82.927 29.218 83.162 29.605C84.768 32.255 87.374 33.76 90.905 34.079C91.356 34.12 91.69 34.519 91.649 34.97C91.61 35.397 91.251 35.717 90.831 35.717Z" fill="#BC4040"/>
</svg>
